<svg xmlns="http://www.w3.org/2000/svg" xmlns:xlink="http://www.w3.org/1999/xlink" width="2000"
    zoomAndPan="magnify" viewBox="0 0 1500 1499.999933" height="2000"
    preserveAspectRatio="xMidYMid meet" version="1.0">
    <defs>
        <clipPath id="4d847da5b0">
            <path
                d="M 394.347656 273.070312 L 1105.347656 273.070312 L 1105.347656 1278.820312 L 394.347656 1278.820312 Z M 394.347656 273.070312 "
                clip-rule="nonzero" />
        </clipPath>
    </defs>
   
    <g clip-path="url(#4d847da5b0)">
        <path fill="#226f6d"
            d="M 749.996094 273.902344 C 553.890625 273.902344 394.347656 433.445312 394.347656 629.550781 C 394.347656 820.253906 722.671875 1243.035156 736.636719 1260.941406 L 749.996094 1278.042969 L 763.351562 1260.941406 C 777.316406 1243.035156 1105.640625 820.253906 1105.640625 629.550781 C 1105.640625 433.445312 946.097656 273.902344 749.996094 273.902344 Z M 749.996094 477.128906 C 834.039062 477.128906 902.414062 545.503906 902.414062 629.550781 C 902.414062 713.59375 834.039062 781.96875 749.996094 781.96875 C 665.949219 781.96875 597.574219 713.59375 597.574219 629.550781 C 597.574219 545.503906 665.949219 477.128906 749.996094 477.128906 Z M 749.996094 477.128906 "
            fill-opacity="1" fill-rule="nonzero" />
    </g>
</svg>